Coordinates
version=1
nRows=16
nColumns=36
inDegrees=yes

Units are S.I. units (second, meters, Newtons, ...)
If the header above contains a line with 'inDegrees', this indicates whether rotational values are in degrees (yes) or radians (no).

endheader
time	pelvis_tilt	pelvis_list	pelvis_rotation	pelvis_tx	pelvis_ty	pelvis_tz	hip_flexion_r	hip_adduction_r	hip_rotation_r	knee_angle_r	knee_angle_r_beta	ankle_angle_r	subtalar_angle_r	mtp_angle_r	hip_flexion_l	hip_adduction_l	hip_rotation_l	knee_angle_l	knee_angle_l_beta	ankle_angle_l	subtalar_angle_l	mtp_angle_l	lumbar_extension	lumbar_bending	lumbar_rotation	arm_flex_r	arm_add_r	arm_rot_r	elbow_flex_r	pro_sup_r	arm_flex_l	arm_add_l	arm_rot_l	elbow_flex_l	pro_sup_l
      0.00000000	      3.25699580	      0.10308001	      0.82651312	     -0.92923330	      1.29899128	     -0.09549334	     -8.38959252	     -3.03768819	     -0.41517331	      1.88256977	      0.03285704	      8.40718933	     -3.02779158	     -6.64232360	     -6.20628431	      0.01910918	      3.52072263	      4.70054639	      0.08204001	      7.65162666	     -1.36070783	     -6.64232360	     -7.90414122	     -0.51096144	     -0.51444110	      2.14943252	     -9.05376421	     24.47105428	    112.41418154	    101.81128357	     -0.61965624	    -10.79037972	     26.13767467	    113.15748233	     99.61318813
      0.00416670	      2.11013617	     -0.20225847	      2.08320812	     -0.92898114	      1.29569658	     -0.09634969	     -7.91323759	     -2.23955819	     -0.09791307	      0.84502976	      0.01474855	      9.74791122	     -0.72153925	     -6.83348635	     -5.42574650	     -0.37236375	      4.95574125	      3.21091340	      0.05604101	      6.14117729	     -0.37096515	     -6.83348635	     -5.87783127	      0.39274837	     -1.25909529	      1.00865794	     -9.02453915	     24.34440368	    112.59870906	     98.07085079	     -1.15011931	    -11.20411414	     26.50501484	    114.19961005	     95.70513694
      0.00833330	      1.43995884	      0.06098948	      2.23220437	     -0.93005320	      1.29709720	     -0.09582528	     -7.32711184	     -2.48988358	     -1.04222518	      0.52063116	      0.00908673	     10.47830932	      0.01254425	     -7.07470970	     -4.91411998	     -0.15223291	      4.60782404	      2.46321528	      0.04299122	      5.50884889	      1.27245045	     -7.07470970	     -5.43643627	      0.25842945	     -1.17892505	      1.16626617	     -9.51122722	     24.98944891	    111.93216106	     97.44803339	     -1.08902532	    -11.28631481	     26.62323004	    114.45773669	     91.82357869
      0.01250000	      1.83449994	      0.13069804	      2.51553323	     -0.93080072	      1.29782158	     -0.09588308	     -7.78901572	     -2.57469017	     -1.57310734	      0.41579024	      0.00725691	     11.17046892	      0.75422921	     -7.08726889	     -5.74637358	     -0.06626789	      5.11324014	      1.40198263	      0.02446921	      4.80098504	      1.70903902	     -7.08726889	     -6.27248670	      0.31447690	     -1.15194180	      1.52223776	     -9.86833111	     25.70362698	    111.45244279	     97.62078219	     -0.46427629	    -11.10953284	     27.08095037	    114.79124877	     91.53356732
      0.01666670	      2.22706149	      0.10749309	      2.80534028	     -0.93177793	      1.29453532	     -0.09562432	     -8.28530236	     -2.48765827	     -1.90317851	      0.37308657	      0.00651159	     11.84796088	      0.74505189	     -7.17510492	     -6.33784348	     -0.12144783	      5.56288379	      0.95224499	      0.01661981	      4.99048417	      1.92519068	     -7.17510492	     -6.95209358	      0.36989142	     -1.32513756	      1.46168287	     -9.75246028	     25.75023188	    111.45448007	     95.82358063	     -0.01260966	    -11.14028596	     27.56353348	    115.74162577	     88.67333726
      0.02083330	      2.42238712	      0.14808472	      2.85539598	     -0.93210127	      1.29857107	     -0.09589538	     -8.54700077	     -2.50160136	     -1.82279079	      0.35407688	      0.00617981	     12.09519263	      0.31500621	     -7.22283504	     -6.53232890	     -0.10953023	      5.93288782	      0.77458106	      0.01351899	      4.93910094	      1.92869957	     -7.22283504	     -7.29104887	      0.26310248	     -1.44721965	      1.43552837	     -9.37782337	     25.49124381	    111.37698910	     93.66385563	      0.17503125	    -11.27625139	     27.87447948	    116.41852384	     86.76315346
      0.02500000	      2.90257218	      0.20692323	      2.98849555	     -0.93301501	      1.29837261	     -0.09577589	     -9.10536854	     -2.50698313	     -1.98490747	      0.34498700	      0.00602116	     12.41606175	      0.28250680	     -7.25987957	     -6.99043971	     -0.14428871	      6.34638174	      0.73782895	      0.01287754	      5.10929636	      1.92042761	     -7.25987957	     -8.01919621	      0.14411333	     -1.48531194	      1.67304634	     -9.20612913	     25.39849336	    111.84436241	     93.06347796	      0.59004194	    -11.56613566	     28.32565716	    117.26600462	     85.81549204
      0.02916670	      3.29283711	      0.26833038	      3.06701467	     -0.93331035	      1.29909855	     -0.09574530	     -9.56994247	     -2.51222379	     -2.16073527	      0.33613496	      0.00586666	     12.43958227	      0.22675455	     -7.28312367	     -7.38494777	     -0.14624833	      6.70538201	      0.73953679	      0.01290735	      5.09371073	      1.84607972	     -7.28312367	     -8.51381341	      0.00752297	     -1.46303450	      1.76317694	     -8.99806261	     25.05768888	    112.06549827	     93.80078460	      0.96980574	    -11.83020612	     28.71773875	    117.69528791	     85.02014583
      0.03333330	      3.29700308	      0.26770376	      3.02253305	     -0.93354147	      1.29536599	     -0.09534891	     -9.57150367	     -2.49936875	     -2.20375491	      0.34534957	      0.00602749	     12.53831975	      0.17474395	     -7.28307164	     -7.40070967	     -0.17394173	      6.74457413	      0.72027620	      0.01257119	      5.15467322	      1.84490030	     -7.28307164	     -8.48117447	     -0.02357783	     -1.44990152	      1.83978082	     -8.96068529	     25.04515004	    112.12075515	     93.82162247	      1.02920906	    -11.83952040	     28.70663565	    117.75667324	     85.02672022
      0.03750000	      3.91040527	      0.34199455	      3.11629961	     -0.93398601	      1.29971820	     -0.09551242	    -10.27481472	     -2.50247862	     -2.34165784	      0.32608146	      0.00569120	     12.64741240	      0.11526247	     -7.36767307	     -8.04887925	     -0.21240054	      7.20646454	      0.81324109	      0.01419373	      5.20045509	      1.72199142	     -7.36767307	     -9.35324627	     -0.14117596	     -1.55154183	      2.09401285	     -8.71050286	     24.74634074	    112.70799166	     95.63774522	      1.45631719	    -12.21563925	     29.07512591	    118.48711300	     82.15698957
      0.04166670	      4.21888388	      0.32862241	      3.07554404	     -0.93451010	      1.29944820	     -0.09533838	    -10.58858677	     -2.46696365	     -2.19046089	      0.31548126	      0.00550619	     12.55387844	     -0.23537229	     -7.39053535	     -8.39454287	     -0.25440518	      7.26360148	      0.84204909	      0.01469653	      5.29875334	      1.70287731	     -7.39053535	     -9.76170739	     -0.13262641	     -1.60818855	      2.21609875	     -8.62263643	     24.75495524	    112.68422753	     92.77187048	      1.56256206	    -12.29225186	     29.07992696	    118.66166915	     80.20027982
      0.04583330	      4.36447258	      0.31669401	      3.17865810	     -0.93468862	      1.29977264	     -0.09527481	    -10.71432398	     -2.38382622	     -2.37091463	      0.30343695	      0.00529597	     12.72728045	      0.10294127	     -7.40213074	     -8.58252552	     -0.34014777	      7.58812795	      0.82258587	      0.01435683	      5.31306957	      1.41498962	     -7.40213074	     -9.92307759	     -0.09034417	     -1.71616504	      2.31756940	     -8.58924991	     24.84065199	    112.53930632	     91.77621145	      1.68890608	    -12.34833882	     29.14262008	    118.79807810	     79.28325138
      0.05000000	      4.52228069	      0.30322905	      3.29497448	     -0.93507130	      1.29919936	     -0.09521947	    -10.85859513	     -2.32127972	     -2.38839098	      0.29463160	      0.00514229	     12.80502550	      0.21631223	     -7.43974114	     -8.75409999	     -0.41581109	      7.81115503	      0.85529786	      0.01492776	      5.46923282	      1.46441962	     -7.43974114	    -10.18233955	      0.01742915	     -1.79140321	      2.34381774	     -8.60451822	     24.71932635	    112.71221003	     95.57618289	      1.82252028	    -12.38753049	     29.24762444	    119.00681734	     78.62766636
      0.05416670	      4.68886029	      0.26632040	      3.29359602	     -0.93519011	      1.29953888	     -0.09516556	    -11.01876203	     -2.26371155	     -2.40824257	      0.29118151	      0.00508208	     12.77251362	      0.21927714	     -7.44539507	     -8.97090674	     -0.50806531	      7.80729177	      0.78147091	      0.01363924	      5.60399562	      1.63964936	     -7.44539507	    -10.37923175	      0.08185569	     -1.84193294	      2.39064811	     -8.54567963	     24.69173963	    112.67731978	     94.10331401	      1.84466017	    -12.36174527	     29.16710377	    119.01324282	     77.77185501
      0.05833330	      4.73973093	      0.23998799	      3.38665444	     -0.93553549	      1.29561376	     -0.09486967	    -11.06336091	     -2.20340431	     -2.50968460	      0.28945677	      0.00505197	     12.73756969	      0.05323558	     -7.44614480	     -8.99770845	     -0.60655447	      8.18084550	      0.74472718	      0.01299794	      5.77064786	      1.47106225	     -7.44614480	    -10.53428433	      0.11789158	     -1.96670664	      2.40725141	     -8.56265663	     24.97823575	    113.21200861	     94.33513492	      1.91373321	    -12.44042271	     29.24789694	    119.41639502	     77.70294312
      0.06250000	      4.82861817	      0.22940971	      3.35002242	     -0.93559286	      1.29963490	     -0.09508950	    -11.14629543	     -2.19470478	     -2.56360217	      0.29048154	      0.00506986	     12.61969960	     -0.01190886	     -7.45244928	     -9.09209877	     -0.67084369	      8.27630059	      0.65982569	      0.01151613	      5.77537039	      1.53630081	     -7.45244928	    -10.65745998	      0.10374949	     -1.95779806	      2.59190395	     -8.44723634	     25.00821207	    113.05048709	     92.92945320	      1.93400709	    -12.41682077	     29.13731364	    119.41584257	     76.73957904
